<svg xmlns="http://www.w3.org/2000/svg" width="36" height="36" viewBox="0 0 36 36">
    <path style="fill:none" d="M0 0h36v36H0z"/>
    <g data-name="Layer 2">
        <path data-name="Path 70" d="M36.074 30.614A16.423 16.423 0 0 0 38.5 22a16.423 16.423 0 0 0-2.426-8.614l-.009-.014a16.5 16.5 0 0 0-28.129 0l-.009.014a16.5 16.5 0 0 0 0 17.228l.009.015a16.5 16.5 0 0 0 28.129 0zm-11.965 5.058a4.01 4.01 0 0 1-1.071.74 2.418 2.418 0 0 1-2.075 0 5.051 5.051 0 0 1-1.872-1.647 14.748 14.748 0 0 1-2.131-4.624q2.518-.155 5.041-.158t5.041.158a18.613 18.613 0 0 1-.9 2.489 9.567 9.567 0 0 1-2.028 3.042zM7.386 22.927h6.655a32.742 32.742 0 0 0 .6 5.53q-2.729.24-5.444.66a14.546 14.546 0 0 1-1.813-6.19zM9.2 14.883q2.714.421 5.446.66a32.685 32.685 0 0 0-.6 5.53h-6.66a14.546 14.546 0 0 1 1.814-6.19zm10.691-6.555a4.009 4.009 0 0 1 1.071-.74 2.418 2.418 0 0 1 2.075 0 5.051 5.051 0 0 1 1.872 1.647 14.748 14.748 0 0 1 2.131 4.624q-2.518.155-5.041.158t-5.041-.158a18.61 18.61 0 0 1 .9-2.489 9.567 9.567 0 0 1 2.028-3.042zm16.723 12.745h-6.655a32.745 32.745 0 0 0-.6-5.53q2.729-.24 5.444-.66a14.546 14.546 0 0 1 1.811 6.19zm-20.106 7.24a30.663 30.663 0 0 1-.612-5.386H28.1a30.655 30.655 0 0 1-.611 5.386q-2.744-.18-5.494-.184t-5.487.184zm10.984-12.626a30.665 30.665 0 0 1 .612 5.386H15.9a30.656 30.656 0 0 1 .611-5.386q2.744.18 5.494.184t5.492-.184zm2.466 7.24h6.656a14.546 14.546 0 0 1-1.813 6.19q-2.714-.421-5.446-.66a32.683 32.683 0 0 0 .603-5.53zm3.731-9.75q-2.373.342-4.76.542a21.141 21.141 0 0 0-1.1-3.113 13.155 13.155 0 0 0-1.535-2.612 14.643 14.643 0 0 1 7.395 5.183zm-22.045-1.533a14.641 14.641 0 0 1 6.065-3.65c-.035.045-.07.088-.1.134a16.924 16.924 0 0 0-2.529 5.592q-2.387-.2-4.763-.542a14.767 14.767 0 0 1 1.333-1.533zm-1.333 19.179q2.373-.342 4.76-.542a21.141 21.141 0 0 0 1.1 3.113 13.157 13.157 0 0 0 1.535 2.612 14.643 14.643 0 0 1-7.4-5.183zm22.046 1.533a14.641 14.641 0 0 1-6.065 3.65c.035-.045.07-.088.1-.134a16.924 16.924 0 0 0 2.529-5.592q2.387.2 4.763.542a14.767 14.767 0 0 1-1.333 1.533z" transform="translate(-2.5 -3.786)" style="fill:#464646"/>
    </g>
</svg>
